<svg xmlns="http://www.w3.org/2000/svg" version="1.1" xmlns:xlink="http://www.w3.org/1999/xlink" xmlns:svgjs="http://svgjs.dev/svgjs" viewBox="0 0 1422 800"><defs><filter id="uuunion-blur" x="-100%" y="-100%" width="400%" height="400%" color-interpolation-filters="sRGB">
        <feGaussianBlur in="SourceGraphic" stdDeviation="0 0" result="blur"></feGaussianBlur>
        <feDropShadow stdDeviation="19.692307692307693" in="blur" dx="16" dy="16" flood-color="hsl(265, 55%, 30%)" flood-opacity="1" x="0%" y="0%" width="100%" height="100%"></feDropShadow>
      </filter><filter id="uuunion-blur2" x="-100%" y="-100%" width="400%" height="400%" color-interpolation-filters="sRGB">
        <feGaussianBlur in="SourceGraphic" stdDeviation="0 0" result="blur"></feGaussianBlur>
        <feDropShadow stdDeviation="19.692307692307693" in="blur" dx="-16" dy="-16" flood-color="hsl(265, 55%, 30%)" flood-opacity="1" x="0%" y="0%" width="100%" height="100%"></feDropShadow>
      </filter><linearGradient gradientTransform="rotate(55, 0.5, 0.5)" x1="50%" y1="0%" x2="50%" y2="100%" id="uuunion-grad"><stop stop-color="hsl(265, 55%, 60%)" offset="10%"></stop><stop stop-color="hsl(265, 55%, 30%)" offset="90%"></stop></linearGradient><linearGradient gradientTransform="rotate(111, 0.5, 0.5)" x1="50%" y1="0%" x2="50%" y2="100%" id="uuunion-grad2"><stop stop-color="hsl(265, 55%, 60%)" offset="25%"></stop><stop stop-color="hsl(265, 55%, 30%)" offset="100%"></stop></linearGradient><linearGradient gradientTransform="rotate(333, 0.5, 0.5)" x1="50%" y1="0%" x2="50%" y2="100%" id="uuunion-grad3"><stop stop-color="hsl(265, 55%, 60%)" offset="0%"></stop><stop stop-color="hsl(265, 55%, 30%)" offset="75%"></stop></linearGradient></defs><path d="M-139.91 -77.63Q-126.64 -79.72 -113.38 -81.89 -100.12 -83.6 -86.86 -84.44 -73.6 -84.23 -60.33 -83.01 -47.07 -81.06 -33.81 -78.86 -20.55 -76.93 -7.28 -75.74 5.97 -75.56 19.23 -76.44 32.49 -78.17 45.75 -80.33 59.02 -82.42 72.28 -83.93 85.54 -84.49 98.8 -83.99 112.06 -82.53 125.33 -80.46 138.59 -78.28 151.85 -76.52 165.11 -75.58 178.38 -75.7 191.64 -76.84 204.9 -78.74 218.16 -80.94 231.42 -82.91 244.69 -84.19 257.95 -84.46 271.21 -83.67 284.47 -82 297.74 -79.85 311 -77.74 324.26 -76.16 337.52 -75.5 350.78 -75.92 364.05 -77.3 377.31 -79.33 390.57 -81.52 403.83 -83.35 417.1 -84.37 430.36 -84.35 443.62 -83.29 456.88 -81.44 470.14 -79.25 483.41 -77.23 496.67 -75.88 509.93 -75.51 523.19 -76.21 536.46 -77.82 549.72 -79.94 562.98 -82.08 576.24 -83.72 589.5 -84.47 602.77 -84.15 616.03 -82.84 629.29 -80.85 642.55 -78.65 655.82 -76.78 669.08 -75.67 682.34 -75.6 695.6 -76.57 708.86 -78.37 722.13 -80.55 735.39 -82.6 748.65 -84.03 761.91 -84.49 775.18 -83.88 788.44 -82.34 801.7 -80.24 814.96 -78.09 828.23 -76.38 841.49 -75.54 854.75 -75.77 868.01 -77 881.27 -78.95 894.54 -81.15 907.8 -83.07 921.06 -84.26 934.32 -84.43 947.59 -83.54 960.85 -81.8 974.11 -79.64 987.37 -77.55 1000.63 -76.05 1013.9 -75.5 1027.16 -76.01 1040.42 -77.48 1053.68 -79.55 1066.95 -81.73 1080.21 -83.49 1093.47 -84.42 1106.73 -84.29 1120 -83.13 1133.26 -81.23 1146.52 -79.03 1159.78 -77.06 1173.04 -75.8 1186.31 -75.53 1199.57 -76.33 1212.83 -78.01 1226.09 -80.16 1239.36 -82.27 1252.62 -83.84 1265.88 -84.49 1279.14 -84.07 1292.41 -82.67 1305.67 -80.63 1318.93 -78.45 1332.19 -76.63 1345.45 -75.62 1358.72 -75.65 1371.98 -76.72 1385.24 -78.57 1398.5 -80.77 1411.77 -82.77 1425.03 -84.12 1438.29 -84.48 1451.55 -83.77 1464.82 -82.16 1478.08 -80.03 1491.34 -77.89 1504.6 -76.26 1517.86 -75.52 1531.13 -75.85 1544.39 -77.17 1557.65 -79.16 1503.6 -63.97 1469.16 -48.78 1465.48 -33.59 1493.76 -18.4 1544.84 -3.21 1602.19 11.97 1647.23 27.16 1665.4 42.35 1650.8 57.55 1608.17 72.74 1551.31 87.93 1498.61 103.12 1467.15 118.31 1467.1 133.5 1498.48 148.69 1551.14 163.88 1608.02 179.07 1650.71 194.26 1665.4 209.45 1647.33 224.64 1602.35 239.84 1545.01 255.03 1493.89 270.22 1465.52 285.41 1469.1 300.6 1503.46 315.79 1557.48 330.98 1613.67 346.17 1653.85 361.36 1665.01 376.55 1643.53 391.74 1596.37 406.93 1538.79 422.13 1489.44 437.32 1464.29 452.51 1471.47 467.7 1508.68 482.89 1563.85 498.08 1619.14 513.27 1656.64 528.46 1664.21 543.65 1639.41 558.84 1590.26 574.03 1532.68 589.22 1485.29 604.42 1463.45 619.61 1474.22 634.8 1514.12 649.99 1570.22 665.18 1624.38 680.37 1659.05 695.56 1663.02 710.75 1635 725.94 1584.05 741.13 1526.68 756.32 1481.45 771.51 1463.01 786.71 1477.32 801.9 1519.75 817.09 1576.57 832.28 1629.38 847.47 1661.09 862.66 1661.44 877.85 1630.3 893.04 1616.27 924.32 1602.25 945.01 1588.22 950.17 1574.19 938.56 1560.16 912.97 1546.14 879.5 1532.11 846.15 1518.08 820.88 1504.05 809.73 1490.03 815.37 1476 836.45 1461.97 867.92 1447.94 902.29 1433.92 931.32 1419.89 948.1 1405.86 948.6 1391.83 932.72 1377.81 904.25 1363.78 869.98 1349.75 838.1 1335.72 816.23 1321.7 809.59 1307.67 819.77 1293.64 844.34 1279.61 877.42 1265.59 911.12 1251.56 937.38 1237.53 949.94 1223.5 945.78 1209.48 925.91 1195.45 895.08 1181.42 860.64 1167.39 830.82 1153.37 812.75 1139.34 810.75 1125.31 825.28 1111.28 852.89 1097.26 886.97 1083.23 919.38 1069.2 942.39 1055.17 950.49 1041.15 941.75 1027.12 918.26 1013.09 885.63 999.06 851.65 985.04 824.45 971.01 810.51 956.98 813.17 942.95 831.79 928.93 861.93 914.9 896.38 900.87 926.92 886.84 946.25 872.82 949.75 858.79 936.59 844.76 909.91 830.73 876.09 816.71 843.19 802.68 819.09 788.65 809.54 774.62 816.81 760.6 839.18 746.57 871.3 732.54 905.5 718.51 933.6 704.49 948.9 690.46 947.74 676.43 930.4 662.41 901.01 648.38 866.61 634.35 835.41 620.32 814.85 606.3 809.86 592.27 821.62 578.24 847.32 564.21 880.83 550.19 914.14 536.16 939.3 522.13 950.28 508.1 944.48 494.08 923.27 480.05 891.73 466.02 857.38 451.99 828.44 437.97 811.81 423.94 811.47 409.91 827.49 395.88 856.06 381.86 890.35 367.83 922.16 353.8 943.9 339.77 950.38 325.75 940.04 311.72 915.36 297.69 882.23 283.66 848.57 269.64 822.41 255.61 810.01 241.58 814.33 227.55 834.33 213.53 865.24 199.5 899.68 185.47 929.41 171.45 947.34 157.42 949.18 143.39 934.5 129.36 906.8 115.34 872.69 101.31 840.33 87.28 817.45 73.25 809.5 59.23 818.4 45.2 842.01 31.17 874.69 17.14 908.64 3.12 935.75 -10.9 949.54 -24.93 946.72 -38.96 927.96 -52.98 897.74 -67.01 863.29 -81.04 832.82 -95.07 813.63 -109.09 810.28 -123.12 823.59 -137.15 850.38 -151.17 884.23 -165.2 917.08 -176.04 901.54 -175.92 885.99 -164.88 870.45 -146.49 854.91 -126.71 839.37 -111.94 823.82 -106.95 808.28 -113.38 792.74 -129.12 777.2 -149.1 761.65 -166.84 746.11 -176.59 730.57 -175.21 715.03 -163.14 699.48 -144.28 683.94 -124.75 668.4 -110.86 652.86 -107.11 637.31 -114.71 621.77 -131.21 606.23 -151.26 590.69 -168.37 575.15 -177.01 559.6 -174.37 544.06 -161.31 528.52 -142.07 512.98 -122.85 497.43 -109.9 481.89 -107.4 466.35 -116.16 450.81 -133.34 435.26 -153.39 419.72 -169.81 404.18 -177.29 388.64 -173.4 373.09 -159.41 357.55 -139.85 342.01 -121.04 326.47 -109.07 310.92 -107.83 295.38 -117.71 279.84 -135.51 264.3 -155.47 248.75 -171.13 233.21 -177.42 217.67 -172.31 202.13 -157.44 186.58 -137.64 171.04 -119.3 155.5 -108.38 139.96 -108.39 124.41 -119.35 108.87 -137.7 93.33 -157.5 77.79 -172.34 62.24 -177.42 46.7 -171.1 31.16 -155.41 15.62 -135.45 0.07 -117.66 -15.46 -107.82 -31 -109.09 -46.54 -121.09 -62.09 -139.91 -77.63" fill="url(#uuunion-grad)"></path><path d="M-139.92 -77.63Q-121.1 -62.08 -109.1 -46.54 -107.82 -31 -117.67 -15.46 -135.46 0.08 -155.42 15.62 -171.11 31.16 -177.43 46.71 -172.35 62.25 -157.51 77.79 -137.71 93.33 -119.36 108.88 -108.4 124.42 -108.39 139.96 -119.31 155.51 -137.65 171.05 -157.45 186.59 -172.32 202.13 -177.43 217.68 -171.14 233.22 -155.48 248.76 -135.52 264.3 -117.71 279.85 -107.84 295.39 -109.08 310.93 -121.05 326.48 -139.86 342.02 -159.42 357.56 -173.41 373.1 -177.3 388.65 -169.82 404.19 -153.4 419.73 -144.28 408.37 -135.17 396.1 -126.06 384.25 -116.94 374.1 -107.83 366.72 -98.72 362.92 -89.6 363.09 -80.49 367.24 -71.38 374.89 -62.26 385.25 -53.15 397.18 -44.04 409.42 -34.92 420.65 -25.81 429.66 -8.58 436.93 -5.54 437.39 3.28 429.86 12.45 416.92 21.96 400.25 31.83 382.15 42.06 365.1 52.64 351.41 63.56 342.78 74.79 340.07 86.31 343.13 98.09 350.88 110.1 361.45 122.29 372.54 134.62 381.8 147.05 387.2 159.55 387.36 172.06 381.82 184.54 371.04 196.96 356.36 209.27 339.74 221.46 323.43 233.48 309.63 245.32 300.05 256.96 295.72 268.4 296.77 279.61 302.43 290.62 311.19 301.42 321.04 312.02 329.82 322.46 335.57 332.74 336.87 342.9 333.04 352.98 324.27 363 311.57 373.01 296.57 383.05 281.26 393.15 267.68 403.35 257.53 413.7 251.92 424.23 251.19 434.97 254.88 445.96 261.79 457.21 270.22 468.74 278.24 480.58 284 492.71 286.07 505.15 283.65 517.89 276.69 530.91 265.89 544.19 252.58 557.7 238.5 571.41 225.45 585.28 215.07 599.26 208.51 613.3 206.29 627.34 208.17 641.34 213.26 655.23 220.15 668.95 227.16 682.44 232.61 695.65 235.1 708.52 233.76 721.01 228.37 733.06 219.36 744.64 207.77 755.71 195.05 766.25 182.8 776.25 172.53 785.69 165.38 802.68 163.76 818.13 170.88 831.39 180.4 843.66 183.53 849.39 179.42 855.01 172.02 860.6 162.11 866.25 150.86 872.04 139.63 878.08 129.77 891.49 119.67 906.38 118.72 914.89 122.42 924.11 126.91 934.08 130.9 944.86 133.25 956.47 133.08 968.94 129.96 982.25 123.96 996.41 115.63 1011.4 105.88 1027.17 95.85 1043.68 86.66 1060.86 79.32 1078.64 74.45 1096.93 72.3 1115.64 72.62 1134.66 74.78 1153.88 77.86 1173.17 80.81 1192.42 82.64 1211.5 82.55 1230.28 80.11 1248.63 75.26 1266.45 68.37 1283.61 60.11 1300 51.37 1315.52 43.09 1330.1 36.11 1343.65 31.02 1356.11 28.09 1367.44 27.2 1386.03 29.64 1401.13 32.41 1415.13 21.3 1420.78 6.16 1421.57 -1.03 1422 -7.38 1365.96 -23.99 1334.37 -40.6 1341 -57.21 1382.96 -73.82 1441.94 -90.44 1492.23 -107.05 1511.87 -123.66 1492.32 -140.27 1479.24 -140.13 1466.15 -139.96 1453.07 -139.8 1439.99 -139.68 1426.9 -139.62 1413.82 -139.64 1400.74 -139.73 1387.65 -139.88 1374.57 -140.04 1361.49 -140.2 1348.41 -140.32 1335.32 -140.37 1322.24 -140.34 1309.16 -140.24 1296.07 -140.1 1282.99 -139.93 1269.91 -139.77 1256.82 -139.66 1243.74 -139.62 1230.66 -139.66 1217.57 -139.76 1204.49 -139.91 1191.41 -140.08 1178.32 -140.23 1165.24 -140.34 1152.16 -140.37 1139.07 -140.33 1125.99 -140.22 1112.91 -140.06 1099.82 -139.89 1086.74 -139.74 1073.66 -139.65 1060.57 -139.62 1047.49 -139.67 1034.41 -139.79 1021.33 -139.95 1008.24 -140.12 995.16 -140.26 982.08 -140.35 968.99 -140.37 955.91 -140.31 942.83 -140.18 929.74 -140.02 916.66 -139.85 903.58 -139.72 890.49 -139.63 877.41 -139.63 864.33 -139.69 851.24 -139.82 838.16 -139.99 825.08 -140.15 811.99 -140.29 798.91 -140.36 785.83 -140.36 772.74 -140.28 759.66 -140.15 746.58 -139.98 733.49 -139.82 720.41 -139.69 707.33 -139.63 694.25 -139.63 681.16 -139.72 668.08 -139.86 655 -140.03 641.91 -140.19 628.83 -140.31 615.75 -140.37 602.66 -140.35 589.58 -140.26 576.5 -140.11 563.41 -139.95 550.33 -139.79 537.25 -139.67 524.16 -139.62 511.08 -139.65 498 -139.74 484.91 -139.89 471.83 -140.06 458.75 -140.22 445.66 -140.33 432.58 -140.37 419.5 -140.34 406.41 -140.23 393.33 -140.08 380.25 -139.91 367.17 -139.76 354.08 -139.65 341 -139.62 327.92 -139.66 314.83 -139.77 301.75 -139.93 288.67 -140.1 275.58 -140.25 262.5 -140.34 249.42 -140.37 236.33 -140.32 223.25 -140.2 210.17 -140.04 197.08 -139.87 184 -139.73 170.92 -139.64 157.83 -139.62 144.75 -139.68 131.67 -139.81 118.58 -139.97 105.5 -140.14 92.42 -140.27 79.33 -140.36 66.25 -140.36 53.17 -140.3 40.09 -140.17 27 -140 13.92 -139.84 0.84 -139.7 -12.24 -139.63 -25.32 -139.63 -38.4 -139.71 -51.49 -139.84 -64.57 -140.01 -77.65 -140.17 -90.74 -140.3 -103.82 -140.36 -116.9 -140.36 -129.99 -140.27 -143.07 -140.13 -156.15 -139.97 -169.24 -139.8 -182.32 -139.68 -186.85 -123.91 -179.76 -108.29 -162.54 -92.86 -139.92 -77.63" fill="url(#uuunion-grad2)" filter="url(#uuunion-blur)"></path><path d="M1399 296.37Q1416.41 289.81 1433.83 293.16 1442.53 300.24 1451.24 309.44 1459.94 319.77 1468.65 330.13 1477.35 339.39 1486.06 346.58 1503.47 350.21 1520.88 343.92 1529.59 335.76 1538.29 325.92 1604.96 343.64 1653.85 361.36 1663.63 379.08 1630.04 396.81 1567.73 414.53 1503.87 432.25 1466.33 449.98 1471.47 467.7 1517.06 485.42 1583.21 503.14 1641.06 520.87 1665.39 538.59 1645.57 556.31 1590.26 574.03 1523.58 591.76 1474.62 609.48 1464.72 627.2 1498.22 644.92 1560.49 662.65 1624.38 680.37 1662.02 698.09 1656.98 715.82 1611.48 733.54 1545.35 751.26 1487.44 768.98 1463.01 786.71 1482.72 804.43 1537.96 822.15 1604.65 839.87 1653.69 857.6 1663.7 875.32 1630.3 893.04 1617.44 922.04 1604.57 942.56 1591.7 950.47 1578.83 944.17 1565.97 924.92 1553.1 896.62 1540.23 864.97 1527.37 836.34 1514.5 816.52 1501.63 809.5 1488.77 816.69 1475.9 836.64 1463.03 865.34 1450.17 896.99 1437.3 925.22 1424.43 944.32 1411.57 950.46 1398.7 942.39 1385.83 921.74 1372.97 892.67 1360.1 861.05 1347.23 833.24 1334.37 814.87 1321.5 809.62 1308.63 818.57 1295.77 839.9 1282.9 869.31 1270.03 900.88 1257.16 928.24 1244.3 945.87 1231.43 950.22 1218.56 940.41 1205.7 918.41 1192.83 888.68 1179.96 857.19 1167.1 830.3 1154.23 813.43 1141.36 809.98 1128.5 820.65 1115.63 843.28 1102.76 873.32 1089.9 904.71 1077.03 931.11 1064.16 947.2 1051.3 949.75 1038.43 938.23 1025.56 914.97 1012.7 884.65 999.83 853.4 986.96 827.51 974.1 812.21 961.23 810.57 948.36 822.93 935.5 846.79 922.63 877.35 909.76 908.45 896.89 933.8 884.03 948.31 871.16 949.04 858.29 935.85 845.43 911.4 832.56 880.62 819.69 849.71 806.83 824.9 793.96 811.21 781.09 811.38 768.23 825.39 755.36 850.41 742.49 881.39 729.63 912.1 716.76 936.33 703.89 949.2 691.03 948.11 678.16 933.3 665.29 907.73 652.43 876.58 639.56 846.11 626.69 822.47 613.83 810.44 600.96 812.42 588.09 828.04 575.22 854.13 562.36 885.43 549.49 915.64 536.62 938.66 523.76 949.85 510.89 946.96 498.02 930.57 485.16 903.97 472.29 872.55 459.42 842.62 446.56 820.23 433.69 809.89 420.82 813.69 407.96 830.85 395.09 857.93 382.22 889.45 369.36 919.07 356.49 940.8 343.62 950.28 330.76 945.59 317.89 927.67 305.02 900.14 292.16 868.54 279.29 839.26 266.42 818.19 253.55 809.58 240.69 815.17 227.82 833.83 214.95 861.8 202.09 893.44 189.22 922.36 176.35 942.75 163.49 950.48 150.62 944 137.75 924.61 124.89 896.23 112.02 864.58 99.15 836.03 86.29 816.35 73.42 809.5 60.55 816.86 47.69 836.96 34.82 865.73 21.95 897.38 9.09 925.52 -18.48 930.25 -19.64 907.7 -12.63 897.01 -3.92 886.32 9.56 870.31 14.38 865 30.23 851.52 44.76 826.05 57.95 792.77 69.86 757.44 80.65 726.18 90.53 704.16 99.75 694.56 108.59 697.91 117.34 712.01 126.26 732.48 135.58 753.61 145.48 769.68 156.08 776.09 167.44 770.32 179.54 752.46 192.3 725.1 205.62 692.8 219.31 661.08 233.22 635.27 247.13 619.36 260.9 615.23 274.35 622.25 287.4 637.48 299.98 656.3 312.09 673.41 323.77 683.96 335.14 684.53 346.33 673.85 357.52 653.04 368.88 625.3 380.59 595.24 392.81 567.86 405.67 547.56 419.24 537.13 433.53 537.3 448.49 546.54 464.02 561.45 479.92 577.52 495.99 590.06 511.97 595.21 527.58 590.72 542.54 576.38 556.61 554.08 569.59 527.3 581.34 500.42 591.79 477.75 608.49 461.3 622.4 470 628.45 483.36 634.58 495.9 641.19 503.7 648.7 503.92 657.5 495.38 667.89 478.72 680.11 456.28 694.3 431.57 710.46 408.49 728.48 390.51 748.11 379.98 769.02 377.62 790.74 382.44 812.74 391.98 824.56 404.13 836.41 415.54 848.29 424.57 860.19 429.94 872.1 430.81 884.03 426.93 895.96 418.66 907.88 406.91 919.79 393.05 931.68 378.7 943.54 365.53 955.36 355.07 967.15 348.48 978.88 346.42 990.55 348.98 1002.16 355.65 1013.69 365.4 1025.15 376.79 1036.51 388.22 1047.78 398.06 1058.95 404.89 1070.01 407.7 1080.95 405.99 1091.77 399.84 1102.46 389.9 1113.02 377.29 1123.44 363.49 1133.71 350.1 1143.83 338.67 1153.8 330.5 1163.61 326.46 1173.26 326.87 1182.75 331.52 1192.06 339.62 1201.21 349.95 1210.18 361.03 1218.98 371.28 1227.6 379.23 1244.23 381.84 1260.34 371.93 1268.09 360.81 1275.67 347.87 1283.08 334.63 1290.32 322.61 1304.26 309.49 1317.74 308.41 1324.22 314.72 1330.57 323.75 1336.79 334.16 1342.89 344.45 1363.27 355.06 1377.37 343.51 1382.84 331.71 1388.27 318.95 1393.65 306.7 1399 296.37" fill="url(#uuunion-grad3)" filter="url(#uuunion-blur2)"></path></svg>
